<?xml version="1.0" encoding="utf-8"?>
<!-- Generated by IcoMoon.io -->
<!DOCTYPE svg PUBLIC "-//W3C//DTD SVG 1.1//EN" "http://www.w3.org/Graphics/SVG/1.1/DTD/svg11.dtd">
<svg version="1.1" xmlns="http://www.w3.org/2000/svg" xmlns:xlink="http://www.w3.org/1999/xlink" width="30" height="32" viewBox="0 0 30 32">
<path d="M26.464 18.75q0.821 0.464 1.062 1.384t-0.224 1.741l-1.142 1.965q-0.464 0.821-1.384 1.062t-1.741-0.224l-4.75-2.733v5.482q0 0.928-0.678 1.606t-1.606 0.678h-2.286q-0.928 0-1.606-0.678t-0.678-1.606v-5.482l-4.75 2.733q-0.821 0.464-1.741 0.224t-1.384-1.062l-1.142-1.965q-0.464-0.821-0.224-1.741t1.062-1.384l4.75-2.75-4.75-2.75q-0.821-0.464-1.062-1.384t0.224-1.741l1.142-1.965q0.464-0.821 1.384-1.062t1.741 0.224l4.75 2.733v-5.482q0-0.928 0.678-1.606t1.606-0.678h2.286q0.928 0 1.606 0.678t0.678 1.606v5.482l4.75-2.733q0.821-0.464 1.741-0.224t1.384 1.062l1.142 1.965q0.464 0.821 0.224 1.741t-1.062 1.384l-4.75 2.75z"></path>
</svg>
