<?xml version="1.0" encoding="utf-8"?>
<!-- Generated by IcoMoon.io -->
<!DOCTYPE svg PUBLIC "-//W3C//DTD SVG 1.1//EN" "http://www.w3.org/Graphics/SVG/1.1/DTD/svg11.dtd">
<svg version="1.1" xmlns="http://www.w3.org/2000/svg" xmlns:xlink="http://www.w3.org/1999/xlink" width="32" height="32" viewBox="0 0 32 32">
<path fill="#556080" d="M23.080 11.531c0 6.37-5.163 11.531-11.531 11.531s-11.531-5.163-11.531-11.531 5.163-11.531 11.531-11.531c6.37 0 11.531 5.163 11.531 11.531z"></path>
<path fill="#8697cb" d="M31.035 27.322l-6.045-6.045-0.816 0.816-3.565-3.443c-0.477 0.606-1.010 1.165-1.597 1.664l3.531 3.41-0.816 0.816 6.046 6.046c0.901 0.901 2.36 0.901 3.261 0s0.901-2.362 0-3.262z"></path>
<path fill="#b0d3f0" d="M20.773 11.531c0 5.096-4.13 9.226-9.226 9.226s-9.226-4.13-9.226-9.226 4.131-9.226 9.226-9.226c5.096 0 9.226 4.13 9.226 9.226z"></path>
</svg>
