<?xml version="1.0" encoding="utf-8"?>
<!-- Generated by IcoMoon.io -->
<!DOCTYPE svg PUBLIC "-//W3C//DTD SVG 1.1//EN" "http://www.w3.org/Graphics/SVG/1.1/DTD/svg11.dtd">
<svg version="1.1" xmlns="http://www.w3.org/2000/svg" xmlns:xlink="http://www.w3.org/1999/xlink" width="32" height="32" viewBox="0 0 32 32">
<path d="M31.733 5.733c-0.4-0.4-1.067-0.4-1.467 0l-19.333 19.333-9.2-9.2c-0.133-0.133-0.267-0.133-0.4-0.267 0 0-0.133 0-0.133 0-0.133 0-0.133 0-0.267 0 0 0 0 0 0 0-0.267 0-0.533 0.133-0.667 0.267 0 0 0 0 0 0-0.133 0.133-0.267 0.4-0.267 0.667s0.133 0.533 0.267 0.667c0 0 0 0 0 0v0c0 0 0 0 0 0l9.867 9.867c0 0 0 0 0 0s0 0 0 0c0.4 0.4 1.067 0.4 1.467 0l20-20c0.533-0.267 0.533-0.933 0.133-1.333z"></path>
</svg>
