<?xml version="1.0" encoding="utf-8"?>
<!-- Generated by IcoMoon.io -->
<!DOCTYPE svg PUBLIC "-//W3C//DTD SVG 1.1//EN" "http://www.w3.org/Graphics/SVG/1.1/DTD/svg11.dtd">
<svg version="1.1" xmlns="http://www.w3.org/2000/svg" xmlns:xlink="http://www.w3.org/1999/xlink" width="32" height="32" viewBox="0 0 32 32">
<path d="M23.258 15.994h-7.251v-11.266c0-0.368-0.299-0.667-0.667-0.667s-0.667 0.299-0.667 0.667v11.931c0 0.368 0.299 0.667 0.667 0.667h7.917c0.368 0 0.667-0.299 0.667-0.667s-0.298-0.667-0.667-0.667z"></path>
<path d="M16 0.333c-8.64 0-15.669 7.029-15.669 15.669s7.029 15.669 15.669 15.669c8.64 0 15.669-7.027 15.669-15.667s-7.029-15.67-15.669-15.67zM16 30.338c-7.906 0-14.336-6.43-14.336-14.334s6.43-14.338 14.336-14.338 14.336 6.43 14.336 14.336c0 7.904-6.43 14.336-14.336 14.336z"></path>
</svg>
