<?xml version="1.0" encoding="utf-8"?>
<!-- Generated by IcoMoon.io -->
<!DOCTYPE svg PUBLIC "-//W3C//DTD SVG 1.1//EN" "http://www.w3.org/Graphics/SVG/1.1/DTD/svg11.dtd">
<svg version="1.1" xmlns="http://www.w3.org/2000/svg" xmlns:xlink="http://www.w3.org/1999/xlink" width="32" height="32" viewBox="0 0 32 32">
<path d="M27.84 9.12c0.16 0.16 0.32 0.32 0.48 0.64h-7.68v-7.68c0.32 0.16 0.48 0.32 0.64 0.48l6.56 6.56zM20 11.84h8.96v17.28c0 0.48-0.16 0.8-0.48 1.12s-0.64 0.48-1.12 0.48h-22.080c-0.48 0-0.8-0.16-1.12-0.48s-0.48-0.64-0.48-1.12v-26.24c0-0.48 0.16-0.8 0.48-1.12s0.64-0.48 1.12-0.48h13.12v8.96c0 0.48 0.16 0.8 0.48 1.12s0.64 0.48 1.12 0.48zM22.56 23.84v-1.12c0-0.16 0-0.32-0.16-0.32s-0.16-0.16-0.32-0.16h-11.52c-0.16 0-0.32 0-0.32 0.16-0.16 0.16-0.16 0.16-0.16 0.32v1.12c0 0.16 0 0.32 0.16 0.32 0.16 0.16 0.16 0.16 0.32 0.16h11.52c0.16 0 0.32 0 0.32-0.16s0.16-0.16 0.16-0.32zM22.56 19.68v-1.12c0-0.16 0-0.32-0.16-0.32s-0.16-0.16-0.32-0.16h-11.52c-0.16 0-0.32 0-0.32 0.16-0.16 0.16-0.16 0.16-0.16 0.32v1.12c0 0.16 0 0.32 0.16 0.32 0.16 0.16 0.16 0.16 0.32 0.16h11.52c0.16 0 0.32 0 0.32-0.16s0.16-0.16 0.16-0.32zM22.56 15.52v-1.12c0-0.16 0-0.32-0.16-0.32s-0.16-0.16-0.32-0.16h-11.52c-0.16 0-0.32 0-0.32 0.16-0.16 0-0.16 0.16-0.16 0.32v1.12c0 0.16 0 0.32 0.16 0.32 0 0.16 0.16 0.16 0.32 0.16h11.52c0.16 0 0.32 0 0.32-0.16 0.16-0.16 0.16-0.16 0.16-0.32z"></path>
</svg>
