<?xml version="1.0" encoding="utf-8"?>
<!-- Generated by IcoMoon.io -->
<!DOCTYPE svg PUBLIC "-//W3C//DTD SVG 1.1//EN" "http://www.w3.org/Graphics/SVG/1.1/DTD/svg11.dtd">
<svg version="1.1" xmlns="http://www.w3.org/2000/svg" xmlns:xlink="http://www.w3.org/1999/xlink" width="32" height="32" viewBox="0 0 32 32">
<path d="M15.981 0.251c-5.787 0-10.493 4.709-10.493 10.494 0 5.563 9.531 20.11 9.938 20.726 0.123 0.187 0.331 0.301 0.557 0.301s0.434-0.114 0.557-0.301c0.406-0.616 9.938-15.165 9.938-20.726 0-5.787-4.707-10.494-10.493-10.494zM15.981 29.875c-2.066-3.24-9.16-14.693-9.16-19.131 0-5.053 4.109-9.162 9.16-9.162s9.16 4.109 9.16 9.162c0 4.435-7.094 15.89-9.16 19.131z"></path>
<path d="M15.981 5.275c-2.237 0-4.059 1.821-4.059 4.058s1.821 4.059 4.059 4.059c2.238 0 4.059-1.821 4.059-4.059s-1.819-4.058-4.059-4.058zM15.981 12.061c-1.502 0-2.725-1.222-2.725-2.725s1.222-2.725 2.725-2.725 2.725 1.222 2.725 2.725-1.222 2.725-2.725 2.725z"></path>
</svg>
