<?xml version="1.0" encoding="utf-8"?>
<!-- Generated by IcoMoon.io -->
<!DOCTYPE svg PUBLIC "-//W3C//DTD SVG 1.1//EN" "http://www.w3.org/Graphics/SVG/1.1/DTD/svg11.dtd">
<svg version="1.1" xmlns="http://www.w3.org/2000/svg" xmlns:xlink="http://www.w3.org/1999/xlink" width="32" height="32" viewBox="0 0 32 32">
<path d="M26.24 14.4h-20.48c-0.883 0-0.96 0.715-0.96 1.6s0.077 1.6 0.96 1.6h20.48c0.883 0 0.96-0.715 0.96-1.6s-0.077-1.6-0.96-1.6zM26.24 20.8h-20.48c-0.883 0-0.96 0.715-0.96 1.6s0.077 1.6 0.96 1.6h20.48c0.883 0 0.96-0.715 0.96-1.6s-0.077-1.6-0.96-1.6zM5.76 11.2h20.48c0.883 0 0.96-0.715 0.96-1.6s-0.077-1.6-0.96-1.6h-20.48c-0.883 0-0.96 0.715-0.96 1.6s0.077 1.6 0.96 1.6z"></path>
</svg>
