<?xml version="1.0" encoding="utf-8"?>
<!-- Generated by IcoMoon.io -->
<!DOCTYPE svg PUBLIC "-//W3C//DTD SVG 1.1//EN" "http://www.w3.org/Graphics/SVG/1.1/DTD/svg11.dtd">
<svg version="1.1" xmlns="http://www.w3.org/2000/svg" xmlns:xlink="http://www.w3.org/1999/xlink" width="32" height="32" viewBox="0 0 32 32">
<path d="M7.467 30.133c-0.4 0.4-0.4 1.2 0 1.6 0 0 0 0 0 0v0c0.4 0.4 1.2 0.4 1.6 0 0 0 0 0 0 0l14-14-1.467-1.733-14.133 14.133z"></path>
<path d="M7.467 1.867l15.733 15.6 1.6-1.6-1.6-1.6-14.133-14c-0.4-0.4-1.067-0.4-1.6 0-0.4 0.533-0.4 1.2 0 1.6z"></path>
<path d="M24.8 16v0 0z"></path>
</svg>
