<!-- Generated by IcoMoon.io -->
<svg version="1.1" xmlns="http://www.w3.org/2000/svg" width="37" height="32" viewBox="0 0 37 32">
<title>bed</title>
<path d="M4.571 18.286h30.858q0.464 0 0.803 0.339t0.339 0.803v8h-4.571v-4.571h-27.429v4.571h-4.571v-21.714q0-0.464 0.339-0.803t0.803-0.339h2.286q0.464 0 0.803 0.339t0.339 0.803v12.571zM14.858 12.571q0-1.893-1.339-3.232t-3.232-1.339-3.232 1.339-1.339 3.232 1.339 3.232 3.232 1.339 3.232-1.339 1.339-3.232zM36.571 17.142v-1.142q0-2.84-2.010-4.848t-4.848-2.010h-12.571q-0.464 0-0.803 0.339t-0.339 0.803v6.858h20.571z"></path>
</svg>
