<!-- Generated by IcoMoon.io -->
<svg version="1.1" xmlns="http://www.w3.org/2000/svg" width="32" height="32" viewBox="0 0 32 32">
<title>building</title>
<path d="M8.68 24.053c0.173 0 0.347-0.080 0.48-0.213 0.12-0.12 0.187-0.28 0.187-0.467 0-0.16-0.067-0.333-0.187-0.469-0.253-0.251-0.707-0.24-0.947 0-0.12 0.122-0.2 0.294-0.2 0.469 0 0.187 0.080 0.347 0.2 0.478 0.12 0.122 0.293 0.202 0.467 0.202z"></path>
<path d="M18.019 22.714h1.384c0.368 0 0.667-0.299 0.667-0.667s-0.299-0.667-0.667-0.667h-1.384c-0.368 0-0.667 0.299-0.667 0.667s0.298 0.667 0.667 0.667z"></path>
<path d="M18.019 18.714h1.384c0.368 0 0.667-0.299 0.667-0.667s-0.299-0.667-0.667-0.667h-1.384c-0.368 0-0.667 0.299-0.667 0.667s0.298 0.667 0.667 0.667z"></path>
<path d="M23.354 22.714h1.333c0.368 0 0.667-0.299 0.667-0.667s-0.299-0.667-0.667-0.667h-1.333c-0.368 0-0.667 0.299-0.667 0.667s0.298 0.667 0.667 0.667z"></path>
<path d="M23.354 26.715h1.333c0.368 0 0.667-0.299 0.667-0.667s-0.299-0.667-0.667-0.667h-1.333c-0.368 0-0.667 0.299-0.667 0.667s0.298 0.667 0.667 0.667z"></path>
<path d="M23.354 18.714h1.333c0.368 0 0.667-0.299 0.667-0.667s-0.299-0.667-0.667-0.667h-1.333c-0.368 0-0.667 0.299-0.667 0.667s0.298 0.667 0.667 0.667z"></path>
<path d="M31.51 15.406l-19.499-7.253c-0.342-0.128-0.728 0.046-0.858 0.392s0.048 0.73 0.394 0.858l1.805 0.672v6.784l-10.166 2.629c0 0 0 0-0.002 0l-2.618 0.675c-0.357 0.091-0.571 0.456-0.478 0.813 0.077 0.301 0.347 0.501 0.643 0.501 0.056 0 0.11-0.006 0.166-0.021l1.784-0.461v10.387c0 0.368 0.299 0.667 0.667 0.667h25.333c0.368 0 0.667-0.299 0.667-0.667v-15.354l1.693 0.629c0.077 0.027 0.157 0.042 0.234 0.042 0.27 0 0.525-0.166 0.626-0.435 0.128-0.344-0.045-0.728-0.39-0.856zM4.019 20.65l9.333-2.414v12.478h-1.333v-4.667c0-0.368-0.299-0.667-0.667-0.667h-5.333c-0.368 0-0.667 0.299-0.667 0.667v4.667h-1.333v-10.064zM6.685 30.715v-4h4v4h-4zM18.686 30.715v-4h1.333v4h-1.333zM28.019 30.715h-6.667v-4.667c0-0.368-0.299-0.667-0.667-0.667h-2.667c-0.368 0-0.667 0.299-0.667 0.667v4.667h-2.667v-20.144l13.333 4.962v15.182z"></path>
</svg>
