<?xml version="1.0" encoding="utf-8"?>
<!-- Generated by IcoMoon.io -->
<!DOCTYPE svg PUBLIC "-//W3C//DTD SVG 1.1//EN" "http://www.w3.org/Graphics/SVG/1.1/DTD/svg11.dtd">
<svg version="1.1" xmlns="http://www.w3.org/2000/svg" xmlns:xlink="http://www.w3.org/1999/xlink" width="30" height="32" viewBox="0 0 30 32">
<path d="M2.286 29.714h5.142v-5.142h-5.142v5.142zM8.571 29.714h5.714v-5.142h-5.714v5.142zM2.286 23.429h5.142v-5.714h-5.142v5.714zM8.571 23.429h5.714v-5.714h-5.714v5.714zM2.286 16.571h5.142v-5.142h-5.142v5.142zM15.429 29.714h5.714v-5.142h-5.714v5.142zM8.571 16.571h5.714v-5.142h-5.714v5.142zM22.286 29.714h5.142v-5.142h-5.142v5.142zM15.429 23.429h5.714v-5.714h-5.714v5.714zM9.142 8v-5.142q0-0.232-0.17-0.402t-0.402-0.17h-1.142q-0.232 0-0.402 0.17t-0.17 0.402v5.142q0 0.232 0.17 0.402t0.402 0.17h1.142q0.232 0 0.402-0.17t0.17-0.402zM22.286 23.429h5.142v-5.714h-5.142v5.714zM15.429 16.571h5.714v-5.142h-5.714v5.142zM22.286 16.571h5.142v-5.142h-5.142v5.142zM22.858 8v-5.142q0-0.232-0.17-0.402t-0.402-0.17h-1.142q-0.232 0-0.402 0.17t-0.17 0.402v5.142q0 0.232 0.17 0.402t0.402 0.17h1.142q0.232 0 0.402-0.17t0.17-0.402zM29.714 6.858v22.858q0 0.928-0.678 1.606t-1.606 0.678h-25.142q-0.928 0-1.606-0.678t-0.678-1.606v-22.858q0-0.928 0.678-1.606t1.606-0.678h2.286v-1.714q0-1.179 0.84-2.018t2.018-0.84h1.142q1.179 0 2.018 0.84t0.84 2.018v1.714h6.858v-1.714q0-1.179 0.84-2.018t2.018-0.84h1.142q1.179 0 2.018 0.84t0.84 2.018v1.714h2.286q0.928 0 1.606 0.678t0.678 1.606z"></path>
</svg>
