<!-- Generated by IcoMoon.io -->
<svg version="1.1" xmlns="http://www.w3.org/2000/svg" width="32" height="32" viewBox="0 0 32 32">
<title>close</title>
<path d="M1.867 0.4c0-0.133 0-0.133 0 0-0.4-0.4-1.2-0.4-1.6 0 0 0 0 0 0 0-0.4 0.4-0.4 1.2 0 1.6l14.133 14 1.6-1.6-14.133-14z"></path>
<path d="M31.733 1.867c0.4-0.4 0.4-1.2 0-1.6 0 0 0 0 0 0v0c-0.4-0.4-1.2-0.4-1.6 0 0 0 0 0 0 0l-14.133 14.133 1.6 1.6 14.133-14.133z"></path>
<path d="M31.733 30.133l-15.733-15.733-15.733 15.733c-0.4 0.4-0.4 1.2 0 1.6s1.2 0.4 1.6 0l14.133-14.133 14 14c0.4 0.4 1.2 0.4 1.6 0 0.533-0.4 0.533-1.067 0.133-1.467z"></path>
</svg>
