<!-- Generated by IcoMoon.io -->
<svg version="1.1" xmlns="http://www.w3.org/2000/svg" width="32" height="32" viewBox="0 0 32 32">
<title>edit</title>
<path d="M15.858 21.142l2.072-2.072-2.714-2.714-2.072 2.072v1h1.714v1.714h1zM23.714 8.286q-0.286-0.286-0.589 0.018l-6.25 6.25q-0.304 0.304-0.018 0.589t0.589-0.018l6.25-6.25q0.304-0.304 0.018-0.589zM25.142 18.893v3.394q0 2.125-1.509 3.634t-3.634 1.509h-14.858q-2.125 0-3.634-1.509t-1.509-3.634v-14.858q0-2.125 1.509-3.634t3.634-1.509h14.858q1.125 0 2.090 0.446 0.267 0.125 0.322 0.411 0.053 0.304-0.16 0.518l-0.875 0.875q-0.25 0.25-0.571 0.142-0.411-0.107-0.803-0.107h-14.858q-1.179 0-2.018 0.84t-0.84 2.018v14.858q0 1.179 0.84 2.018t2.018 0.84h14.858q1.179 0 2.018-0.84t0.84-2.018v-2.25q0-0.232 0.16-0.394l1.142-1.142q0.267-0.267 0.626-0.125t0.357 0.518zM23.429 5.714l5.142 5.142-12 12h-5.142v-5.142zM31.357 8.072l-1.643 1.643-5.142-5.142 1.643-1.643q0.501-0.501 1.214-0.501t1.214 0.501l2.714 2.714q0.501 0.501 0.501 1.214t-0.501 1.214z"></path>
</svg>
