<!-- Generated by IcoMoon.io -->
<svg version="1.1" xmlns="http://www.w3.org/2000/svg" width="24" height="32" viewBox="0 0 24 32">
<title>eligibility</title>
<path fill="#edebda" d="M21.622 6.746l-6.746-6.746h-14.875v27.848h21.622v-21.102z"></path>
<path fill="#cec9ae" d="M4.843 11.070h12.022c0.259 0 0.518-0.173 0.518-0.518s-0.173-0.518-0.518-0.518h-12.022c-0.259 0-0.518 0.173-0.518 0.518s0.173 0.518 0.518 0.518z"></path>
<path fill="#cec9ae" d="M4.843 7.178h4.843c0.259 0 0.518-0.173 0.518-0.518 0-0.259-0.173-0.518-0.518-0.518h-4.843c-0.346 0.086-0.518 0.346-0.518 0.605s0.173 0.432 0.518 0.432z"></path>
<path fill="#cec9ae" d="M16.778 13.925h-11.934c-0.259 0-0.518 0.173-0.518 0.518 0 0.259 0.173 0.518 0.518 0.518h12.022c0.259 0 0.518-0.173 0.518-0.518-0.086-0.259-0.259-0.518-0.605-0.518z"></path>
<path fill="#cec9ae" d="M16.778 17.816h-11.934c-0.259 0-0.518 0.173-0.518 0.518s0.173 0.518 0.518 0.518h12.022c0.259 0 0.518-0.173 0.518-0.518s-0.259-0.518-0.605-0.518z"></path>
<path fill="#cec9ae" d="M16.778 21.622h-11.934c-0.346 0-0.518 0.173-0.518 0.518s0.173 0.518 0.518 0.518h12.022c0.259 0 0.518-0.173 0.518-0.518s-0.259-0.518-0.605-0.518z"></path>
<path fill="#cec9ae" d="M14.875 0v6.746h6.746l-6.746-6.746z"></path>
<path fill="#c7cbc7" d="M22.573 24.734c-1.125-0.259-1.73-1.557-0.952-2.509l0.518-0.691-1.038-1.038-0.691 0.432c-1.038 0.691-2.334 0.086-2.509-1.125l-0.173-0.778h-1.47l-0.173 1.038c-0.259 1.125-1.557 1.643-2.509 1.038l-0.866-0.605-1.038 1.038 0.432 0.691c0.691 0.952 0.173 2.334-0.952 2.509l-0.778 0.173v1.47l0.778 0.086c1.125 0.173 1.73 1.47 1.125 2.509l-0.432 0.691 1.038 1.038 0.691-0.432c0.952-0.691 2.334-0.173 2.509 0.952l0.173 0.778h1.47l0.086-0.605c0.173-1.211 1.557-1.73 2.509-1.038l0.432 0.346 1.038-1.038-0.432-0.691c-0.691-0.952-0.086-2.334 1.125-2.509l0.866-0.086v-1.47l-0.778-0.173zM16.952 26.725c-0.605 0-1.125-0.518-1.125-1.125s0.518-1.125 1.125-1.125 1.125 0.518 1.125 1.125c0 0.691-0.432 1.125-1.125 1.125v0 0z"></path>
<path fill="#556080" d="M16.952 23.266c-1.298 0-2.334 1.038-2.334 2.334s1.038 2.334 2.334 2.334 2.334-1.038 2.334-2.334c0.086-1.298-0.952-2.334-2.334-2.334v0 0zM16.952 26.725c-0.605 0-1.125-0.518-1.125-1.125s0.518-1.125 1.125-1.125 1.125 0.518 1.125 1.125c0 0.691-0.432 1.125-1.125 1.125v0 0z"></path>
</svg>
