<!-- Generated by IcoMoon.io -->
<svg version="1.1" xmlns="http://www.w3.org/2000/svg" width="32" height="32" viewBox="0 0 32 32">
<title>eye</title>
<path d="M29.714 17.142q-2.714-4.214-6.803-6.304 1.090 1.858 1.090 4.018 0 3.304-2.349 5.651t-5.651 2.349-5.651-2.349-2.349-5.651q0-2.16 1.090-4.018-4.090 2.090-6.803 6.304 2.374 3.661 5.955 5.83t7.758 2.17 7.758-2.17 5.955-5.83zM16.858 10.286q0-0.357-0.25-0.606t-0.606-0.25q-2.232 0-3.83 1.598t-1.598 3.83q0 0.357 0.25 0.606t0.606 0.25 0.606-0.25 0.25-0.606q0-1.536 1.090-2.626t2.626-1.090q0.357 0 0.606-0.25t0.25-0.606zM32 17.142q0 0.606-0.357 1.232-2.501 4.107-6.723 6.581t-8.92 2.474-8.92-2.482-6.723-6.571q-0.357-0.626-0.357-1.232t0.357-1.232q2.501-4.090 6.723-6.571t8.92-2.482 8.92 2.482 6.723 6.571q0.357 0.626 0.357 1.232z"></path>
</svg>
