<!-- Generated by IcoMoon.io -->
<svg version="1.1" xmlns="http://www.w3.org/2000/svg" width="32" height="32" viewBox="0 0 32 32">
<title>filter-qty--5</title>
<path fill="#0077da" d="M32 16c0 8.837-7.163 16-16 16s-16-7.163-16-16c0-8.837 7.163-16 16-16s16 7.163 16 16z"></path>
<path fill="#fff" d="M19.736 10.151c0 0.33-0.106 0.597-0.317 0.803-0.205 0.205-0.551 0.308-1.036 0.308h-3.715l-0.485 2.819c0.61-0.124 1.167-0.187 1.671-0.187 0.709 0 1.332 0.106 1.867 0.317 0.541 0.212 0.996 0.504 1.363 0.877s0.644 0.812 0.831 1.316c0.187 0.498 0.28 1.036 0.28 1.615 0 0.716-0.128 1.369-0.383 1.96-0.249 0.591-0.597 1.098-1.045 1.521-0.448 0.417-0.98 0.74-1.596 0.971-0.61 0.23-1.276 0.345-1.997 0.345-0.423 0-0.824-0.044-1.204-0.131s-0.737-0.202-1.073-0.345c-0.33-0.149-0.638-0.317-0.924-0.504-0.28-0.193-0.532-0.395-0.756-0.607l0.709-0.98c0.149-0.212 0.348-0.317 0.597-0.317 0.156 0 0.311 0.050 0.467 0.149 0.162 0.1 0.348 0.208 0.56 0.327s0.457 0.227 0.737 0.327c0.28 0.1 0.619 0.149 1.017 0.149 0.423 0 0.796-0.068 1.12-0.205s0.591-0.327 0.803-0.569c0.218-0.249 0.38-0.541 0.485-0.877 0.112-0.342 0.168-0.712 0.168-1.111 0-0.734-0.215-1.307-0.644-1.717-0.423-0.417-1.048-0.625-1.876-0.625-0.653 0-1.31 0.118-1.969 0.355l-1.437-0.411 1.12-6.552h6.664v0.98z"></path>
</svg>
