<!-- Generated by IcoMoon.io -->
<svg version="1.1" xmlns="http://www.w3.org/2000/svg" width="32" height="32" viewBox="0 0 32 32">
<title>filter-qty--3</title>
<path fill="#0077da" d="M32 16c0 8.837-7.163 16-16 16s-16-7.163-16-16c0-8.837 7.163-16 16-16s16 7.163 16 16z"></path>
<path fill="#fff" d="M16.339 9.021c0.622 0 1.182 0.090 1.68 0.271 0.504 0.174 0.933 0.42 1.288 0.737 0.355 0.311 0.625 0.678 0.812 1.101 0.193 0.423 0.289 0.88 0.289 1.372 0 0.429-0.050 0.809-0.149 1.139-0.093 0.324-0.233 0.607-0.42 0.849-0.18 0.243-0.404 0.448-0.672 0.616-0.261 0.168-0.56 0.308-0.896 0.42 0.809 0.255 1.412 0.644 1.811 1.167s0.597 1.179 0.597 1.969c0 0.672-0.124 1.266-0.373 1.783s-0.585 0.952-1.008 1.307c-0.423 0.348-0.915 0.613-1.475 0.793-0.554 0.18-1.142 0.271-1.764 0.271-0.678 0-1.269-0.078-1.773-0.233s-0.943-0.386-1.316-0.691c-0.373-0.305-0.691-0.678-0.952-1.12s-0.485-0.952-0.672-1.531l1.017-0.42c0.174-0.075 0.352-0.112 0.532-0.112 0.162 0 0.305 0.034 0.429 0.103 0.131 0.068 0.23 0.168 0.299 0.299 0.112 0.218 0.233 0.432 0.364 0.644 0.137 0.212 0.299 0.401 0.485 0.569 0.187 0.162 0.404 0.296 0.653 0.401 0.255 0.1 0.557 0.149 0.905 0.149 0.392 0 0.734-0.062 1.027-0.187 0.292-0.131 0.535-0.299 0.728-0.504 0.199-0.205 0.345-0.432 0.439-0.681 0.1-0.255 0.149-0.51 0.149-0.765 0-0.324-0.034-0.616-0.103-0.877-0.068-0.268-0.212-0.495-0.429-0.681s-0.532-0.333-0.943-0.439c-0.404-0.106-0.949-0.159-1.633-0.159v-1.643c0.566-0.006 1.036-0.059 1.409-0.159s0.669-0.236 0.887-0.411c0.224-0.18 0.38-0.395 0.467-0.644s0.131-0.523 0.131-0.821c0-0.641-0.174-1.123-0.523-1.447-0.348-0.33-0.824-0.495-1.428-0.495-0.548 0-1.002 0.146-1.363 0.439-0.361 0.286-0.613 0.656-0.756 1.111-0.075 0.236-0.177 0.408-0.308 0.513-0.131 0.1-0.302 0.149-0.513 0.149-0.1 0-0.205-0.009-0.317-0.028l-1.213-0.215c0.093-0.647 0.274-1.213 0.541-1.699 0.268-0.492 0.6-0.899 0.999-1.223 0.404-0.33 0.865-0.576 1.381-0.737 0.523-0.168 1.083-0.252 1.68-0.252z"></path>
</svg>
