<!-- Generated by IcoMoon.io -->
<svg version="1.1" xmlns="http://www.w3.org/2000/svg" width="32" height="32" viewBox="0 0 32 32">
<title>filter-qty--4</title>
<path fill="#0077da" d="M32 16c0 8.837-7.163 16-16 16s-16-7.163-16-16c0-8.837 7.163-16 16-16s16 7.163 16 16z"></path>
<path fill="#fff" d="M19.297 17.58h1.699v1.335c0 0.124-0.040 0.233-0.121 0.327-0.081 0.087-0.199 0.131-0.355 0.131h-1.223v3.295h-2.016v-3.295h-5.693c-0.156 0-0.292-0.047-0.411-0.14-0.118-0.1-0.193-0.221-0.224-0.364l-0.233-1.167 6.393-8.54h2.184v8.419zM17.281 13.165c0-0.199 0.006-0.414 0.019-0.644s0.034-0.47 0.065-0.719l-4.191 5.777h4.107v-4.415z"></path>
</svg>
