<!-- Generated by IcoMoon.io -->
<svg version="1.1" xmlns="http://www.w3.org/2000/svg" width="32" height="32" viewBox="0 0 32 32">
<title>filter-qty--9</title>
<path fill="#0077da" d="M32 16c0 8.837-7.163 16-16 16s-16-7.163-16-16c0-8.837 7.163-16 16-16s16 7.163 16 16z"></path>
<path fill="#fff" d="M15.452 17.281c-0.467 0-0.924-0.081-1.372-0.243s-0.849-0.404-1.204-0.728c-0.348-0.33-0.628-0.734-0.84-1.213-0.212-0.485-0.317-1.052-0.317-1.699 0-0.604 0.112-1.17 0.336-1.699s0.538-0.992 0.943-1.391c0.404-0.398 0.89-0.712 1.456-0.943s1.192-0.345 1.876-0.345c0.691 0 1.31 0.109 1.857 0.327 0.554 0.218 1.024 0.523 1.409 0.915 0.392 0.392 0.691 0.862 0.896 1.409 0.212 0.548 0.317 1.148 0.317 1.801 0 0.417-0.037 0.812-0.112 1.185-0.068 0.373-0.171 0.734-0.308 1.083-0.131 0.342-0.289 0.678-0.476 1.008-0.187 0.324-0.395 0.65-0.625 0.98l-3.089 4.405c-0.106 0.149-0.264 0.277-0.476 0.383-0.205 0.1-0.442 0.149-0.709 0.149h-2.119l4.191-5.236c0.106-0.131 0.205-0.258 0.299-0.383s0.184-0.249 0.271-0.373c-0.311 0.199-0.653 0.352-1.027 0.457-0.373 0.1-0.765 0.149-1.176 0.149zM18.597 13.24c0-0.367-0.056-0.694-0.168-0.98-0.112-0.292-0.271-0.538-0.476-0.737s-0.451-0.352-0.737-0.457c-0.28-0.106-0.588-0.159-0.924-0.159-0.348 0-0.663 0.059-0.943 0.177-0.28 0.112-0.52 0.271-0.719 0.476-0.193 0.205-0.342 0.451-0.448 0.737-0.106 0.28-0.159 0.588-0.159 0.924 0 0.753 0.193 1.328 0.579 1.727 0.392 0.392 0.946 0.588 1.661 0.588 0.373 0 0.703-0.059 0.989-0.177 0.292-0.118 0.538-0.28 0.737-0.485s0.348-0.448 0.448-0.728c0.106-0.28 0.159-0.582 0.159-0.905z"></path>
</svg>
