<!-- Generated by IcoMoon.io -->
<svg version="1.1" xmlns="http://www.w3.org/2000/svg" width="32" height="32" viewBox="0 0 32 32">
<title>filter-qty--0</title>
<path fill="#0077da" d="M32 16c0 8.837-7.163 16-16 16s-16-7.163-16-16c0-8.837 7.163-16 16-16s16 7.163 16 16z"></path>
<path fill="#fff" d="M20.865 15.919c0 1.176-0.128 2.2-0.383 3.071-0.249 0.865-0.597 1.58-1.045 2.147-0.442 0.566-0.968 0.989-1.577 1.269-0.604 0.274-1.257 0.411-1.96 0.411s-1.356-0.137-1.96-0.411c-0.597-0.28-1.117-0.703-1.559-1.269s-0.787-1.282-1.036-2.147c-0.249-0.871-0.373-1.895-0.373-3.071 0-1.182 0.124-2.206 0.373-3.071s0.594-1.58 1.036-2.147 0.961-0.986 1.559-1.26c0.604-0.28 1.257-0.42 1.96-0.42s1.356 0.14 1.96 0.42c0.61 0.274 1.136 0.694 1.577 1.26 0.448 0.566 0.796 1.282 1.045 2.147 0.255 0.865 0.383 1.888 0.383 3.071zM18.485 15.919c0-0.977-0.072-1.786-0.215-2.427s-0.336-1.151-0.579-1.531c-0.236-0.38-0.51-0.644-0.821-0.793-0.311-0.156-0.635-0.233-0.971-0.233-0.33 0-0.65 0.078-0.961 0.233-0.305 0.149-0.576 0.414-0.812 0.793s-0.426 0.89-0.569 1.531c-0.137 0.641-0.205 1.45-0.205 2.427s0.068 1.786 0.205 2.427c0.143 0.641 0.333 1.151 0.569 1.531s0.507 0.647 0.812 0.803c0.311 0.149 0.632 0.224 0.961 0.224 0.336 0 0.66-0.075 0.971-0.224 0.311-0.156 0.585-0.423 0.821-0.803 0.243-0.38 0.436-0.89 0.579-1.531s0.215-1.45 0.215-2.427z"></path>
</svg>
