<!-- Generated by IcoMoon.io -->
<svg version="1.1" xmlns="http://www.w3.org/2000/svg" width="32" height="32" viewBox="0 0 32 32">
<title>filter-qty--8</title>
<path fill="#0077da" d="M32 16c0 8.837-7.163 16-16 16s-16-7.163-16-16c0-8.837 7.163-16 16-16s16 7.163 16 16z"></path>
<path fill="#fff" d="M15.919 22.816c-0.697 0-1.335-0.093-1.913-0.28-0.572-0.187-1.064-0.451-1.475-0.793s-0.731-0.756-0.961-1.241c-0.224-0.485-0.336-1.027-0.336-1.624 0-0.796 0.196-1.468 0.588-2.016 0.392-0.554 1.002-0.964 1.829-1.232-0.66-0.274-1.154-0.663-1.484-1.167-0.324-0.504-0.485-1.111-0.485-1.82 0-0.51 0.103-0.986 0.308-1.428 0.212-0.442 0.504-0.824 0.877-1.148 0.373-0.33 0.818-0.585 1.335-0.765 0.523-0.187 1.095-0.28 1.717-0.28s1.192 0.093 1.708 0.28c0.523 0.18 0.971 0.436 1.344 0.765 0.373 0.324 0.663 0.706 0.868 1.148 0.212 0.442 0.317 0.918 0.317 1.428 0 0.709-0.165 1.316-0.495 1.82s-0.821 0.893-1.475 1.167c0.828 0.268 1.437 0.678 1.829 1.232 0.392 0.548 0.588 1.22 0.588 2.016 0 0.597-0.115 1.139-0.345 1.624-0.224 0.485-0.541 0.899-0.952 1.241s-0.905 0.607-1.484 0.793c-0.572 0.187-1.207 0.28-1.904 0.28zM15.919 21.015c0.38 0 0.712-0.053 0.999-0.159 0.286-0.112 0.526-0.264 0.719-0.457 0.199-0.193 0.348-0.423 0.448-0.691s0.149-0.557 0.149-0.868c0-0.74-0.205-1.3-0.616-1.68s-0.977-0.569-1.699-0.569c-0.722 0-1.288 0.19-1.699 0.569s-0.616 0.94-0.616 1.68c0 0.311 0.050 0.6 0.149 0.868s0.246 0.498 0.439 0.691c0.199 0.193 0.442 0.345 0.728 0.457 0.286 0.106 0.619 0.159 0.999 0.159zM15.919 14.78c0.373 0 0.688-0.059 0.943-0.177s0.46-0.274 0.616-0.467c0.156-0.199 0.264-0.423 0.327-0.672 0.068-0.255 0.103-0.516 0.103-0.784 0-0.255-0.040-0.498-0.121-0.728s-0.202-0.432-0.364-0.607c-0.162-0.18-0.367-0.324-0.616-0.429s-0.544-0.159-0.887-0.159c-0.342 0-0.638 0.053-0.887 0.159s-0.457 0.249-0.625 0.429c-0.162 0.174-0.283 0.376-0.364 0.607-0.075 0.23-0.112 0.473-0.112 0.728 0 0.268 0.031 0.529 0.093 0.784 0.068 0.249 0.18 0.473 0.336 0.672 0.156 0.193 0.361 0.348 0.616 0.467s0.569 0.177 0.943 0.177z"></path>
</svg>
