<!-- Generated by IcoMoon.io -->
<svg version="1.1" xmlns="http://www.w3.org/2000/svg" width="32" height="32" viewBox="0 0 32 32">
<title>filter-qty--6</title>
<path fill="#0077da" d="M32 16c0 8.837-7.163 16-16 16s-16-7.163-16-16c0-8.837 7.163-16 16-16s16 7.163 16 16z"></path>
<path fill="#fff" d="M16.759 14.239c0.51 0 1.005 0.084 1.484 0.252 0.485 0.168 0.912 0.423 1.279 0.765 0.367 0.336 0.663 0.756 0.887 1.26s0.336 1.092 0.336 1.764c0 0.628-0.115 1.22-0.345 1.773-0.23 0.548-0.554 1.027-0.971 1.437s-0.921 0.734-1.512 0.971c-0.585 0.236-1.232 0.355-1.941 0.355-0.722 0-1.369-0.115-1.941-0.345s-1.061-0.551-1.465-0.961c-0.404-0.417-0.716-0.915-0.933-1.493-0.212-0.585-0.317-1.232-0.317-1.941 0-0.635 0.128-1.285 0.383-1.951 0.261-0.672 0.663-1.369 1.204-2.091l3.22-4.321c0.112-0.149 0.274-0.277 0.485-0.383 0.218-0.106 0.467-0.159 0.747-0.159h2.053l-4.004 4.9c-0.087 0.106-0.171 0.205-0.252 0.299-0.075 0.093-0.149 0.19-0.224 0.289 0.261-0.131 0.541-0.233 0.84-0.308 0.305-0.075 0.635-0.112 0.989-0.112zM13.529 18.429c0 0.373 0.050 0.716 0.149 1.027 0.106 0.305 0.258 0.566 0.457 0.784 0.205 0.218 0.457 0.389 0.756 0.513 0.299 0.118 0.644 0.177 1.036 0.177 0.367 0 0.703-0.062 1.008-0.187 0.311-0.124 0.576-0.299 0.793-0.523 0.224-0.224 0.398-0.485 0.523-0.784 0.124-0.305 0.187-0.635 0.187-0.989 0-0.386-0.059-0.731-0.177-1.036-0.118-0.311-0.286-0.572-0.504-0.784-0.218-0.218-0.479-0.383-0.784-0.495s-0.641-0.168-1.008-0.168c-0.367 0-0.7 0.062-0.999 0.187s-0.557 0.299-0.775 0.523c-0.212 0.218-0.376 0.479-0.495 0.784-0.112 0.299-0.168 0.622-0.168 0.971z"></path>
</svg>
