<!-- Generated by IcoMoon.io -->
<svg version="1.1" xmlns="http://www.w3.org/2000/svg" width="32" height="32" viewBox="0 0 32 32">
<title>filter-qty--7</title>
<path fill="#0077da" d="M32 16c0 8.837-7.163 16-16 16s-16-7.163-16-16c0-8.837 7.163-16 16-16s16 7.163 16 16z"></path>
<path fill="#fff" d="M20.735 9.171v0.999c0 0.299-0.034 0.541-0.103 0.728-0.062 0.18-0.124 0.333-0.187 0.457l-5.105 10.528c-0.106 0.218-0.255 0.404-0.448 0.56-0.193 0.149-0.454 0.224-0.784 0.224h-1.671l5.227-10.313c0.218-0.423 0.46-0.787 0.728-1.092h-6.459c-0.143 0-0.268-0.053-0.373-0.159s-0.159-0.23-0.159-0.373v-1.559h9.333z"></path>
</svg>
