<!-- Generated by IcoMoon.io -->
<svg version="1.1" xmlns="http://www.w3.org/2000/svg" width="32" height="32" viewBox="0 0 32 32">
<title>filter-qty--1</title>
<path fill="#0077da" d="M32 16c0 8.837-7.163 16-16 16s-16-7.163-16-16c0-8.837 7.163-16 16-16s16 7.163 16 16z"></path>
<path fill="#fff" d="M13.016 20.94h2.735v-7.868c0-0.305 0.009-0.625 0.028-0.961l-1.941 1.624c-0.081 0.068-0.165 0.115-0.252 0.14-0.081 0.025-0.162 0.037-0.243 0.037-0.124 0-0.24-0.025-0.345-0.075-0.1-0.056-0.174-0.118-0.224-0.187l-0.728-0.999 4.116-3.5h1.895v11.788h2.427v1.727h-7.467v-1.727z"></path>
</svg>
