<!-- Generated by IcoMoon.io -->
<svg version="1.1" xmlns="http://www.w3.org/2000/svg" width="32" height="32" viewBox="0 0 32 32">
<title>filter-qty--2</title>
<path fill="#0077da" d="M32 16c0 8.837-7.163 16-16 16s-16-7.163-16-16c0-8.837 7.163-16 16-16s16 7.163 16 16z"></path>
<path fill="#fff" d="M16.124 9.021c0.622 0 1.192 0.093 1.708 0.28 0.516 0.18 0.958 0.439 1.325 0.775s0.653 0.74 0.859 1.213c0.205 0.473 0.308 0.999 0.308 1.577 0 0.498-0.075 0.958-0.224 1.381-0.143 0.423-0.339 0.828-0.588 1.213-0.243 0.386-0.529 0.759-0.859 1.12s-0.675 0.728-1.036 1.101l-3.043 3.108c0.299-0.087 0.591-0.152 0.877-0.196 0.286-0.050 0.56-0.075 0.821-0.075h3.463c0.249 0 0.445 0.072 0.588 0.215 0.149 0.137 0.224 0.32 0.224 0.551v1.381h-9.259v-0.765c0-0.156 0.031-0.317 0.093-0.485 0.068-0.168 0.174-0.324 0.317-0.467l4.097-4.107c0.342-0.348 0.647-0.681 0.915-0.999 0.274-0.317 0.501-0.632 0.681-0.943 0.187-0.311 0.327-0.625 0.42-0.943 0.1-0.324 0.149-0.663 0.149-1.017 0-0.324-0.047-0.607-0.14-0.849-0.093-0.249-0.227-0.457-0.401-0.625s-0.383-0.292-0.625-0.373c-0.236-0.087-0.504-0.131-0.803-0.131-0.554 0-1.011 0.14-1.372 0.42-0.355 0.28-0.604 0.656-0.747 1.129-0.068 0.236-0.171 0.408-0.308 0.513-0.137 0.1-0.311 0.149-0.523 0.149-0.093 0-0.196-0.009-0.308-0.028l-1.213-0.215c0.093-0.647 0.274-1.213 0.541-1.699 0.268-0.492 0.6-0.899 0.999-1.223 0.404-0.33 0.865-0.576 1.381-0.737 0.523-0.168 1.083-0.252 1.68-0.252z"></path>
</svg>
