<!-- Generated by IcoMoon.io -->
<svg version="1.1" xmlns="http://www.w3.org/2000/svg" width="32" height="32" viewBox="0 0 32 32">
<title>forward</title>
<path d="M25.467 17.867v0c0 0 0 0 0 0-2.267 0-4.133 1.333-5.067 3.2v0l-8.267-3.733c0.133-0.533 0.267-1.067 0.133-1.733 0-0.267-0.133-0.533-0.133-0.8l8.267-3.867c1.067 1.733 3.067 2.933 5.333 2.933 3.333-0.133 6-2.933 5.867-6.267s-2.933-6-6.267-5.867c-3.333 0-5.867 2.8-5.867 6 0 0.133 0 0.133 0 0.267 0 0.4 0.133 0.667 0.133 1.067l-8 3.867c-1.2-2-3.2-3.2-5.467-3.067v0c0 0 0 0 0 0-3.333 0-5.867 2.8-5.867 6 0 0.133 0 0.133 0 0.267 0.133 3.333 2.933 6 6.267 5.867 2-0.133 3.733-1.2 4.8-2.667v0l8.4 3.867c0 0.267-0.133 0.533-0.133 0.8 0 0.133 0 0.133 0 0.267 0.133 3.333 2.933 6 6.267 5.867s6-2.933 5.867-6.267-2.933-6.133-6.267-6zM25.467 3.733c0 0 0 0 0 0v0c2.267-0.133 4.133 1.6 4.133 3.867 0.133 2.267-1.6 4.133-3.867 4.133-2.267 0.133-4.133-1.6-4.133-3.867 0 0 0-0.133 0-0.133-0.133-2.133 1.6-3.867 3.867-4zM6.4 19.867c-2.267 0.133-4.133-1.6-4.133-3.867 0 0 0-0.133 0-0.133 0-2.133 1.733-4 3.867-4v0c2.267-0.133 4.133 1.6 4.133 3.867 0.133 2.133-1.6 4-3.867 4.133zM25.733 27.867c-2.267 0.133-4.133-1.6-4.133-3.867 0 0 0-0.133 0-0.133 0-2.133 1.733-4 3.867-4 0 0 0 0 0 0v0c2.267-0.133 4.133 1.6 4.133 3.867 0.133 2.267-1.6 4.133-3.867 4.133z"></path>
</svg>
