<!-- Generated by IcoMoon.io -->
<svg version="1.1" xmlns="http://www.w3.org/2000/svg" width="32" height="32" viewBox="0 0 32 32">
<title>input-clear</title>
<path fill="#c4c4c4" d="M32 16c0 8.837-7.163 16-16 16s-16-7.163-16-16c0-8.837 7.163-16 16-16s16 7.163 16 16z"></path>
<path fill="#fff" d="M21.897 21.897c-0.425 0.425-1.114 0.425-1.538 0s-0.425-1.114 0-1.538c0.425-0.425 1.114-0.425 1.538 0s0.425 1.114 0 1.538z"></path>
<path fill="#fff" d="M11.641 11.641c-0.425 0.425-1.114 0.425-1.538 0s-0.425-1.114 0-1.538c0.425-0.425 1.114-0.425 1.538 0s0.425 1.114 0 1.538z"></path>
<path fill="#fff" d="M11.641 10.103l10.256 10.256-1.538 1.538-10.256-10.256 1.538-1.538z"></path>
<path fill="#fff" d="M21.897 10.103c0.425 0.425 0.425 1.114 0 1.538s-1.114 0.425-1.538 0c-0.425-0.425-0.425-1.114 0-1.538s1.114-0.425 1.538 0z"></path>
<path fill="#fff" d="M11.642 20.359c0.425 0.425 0.425 1.114 0 1.538s-1.114 0.425-1.538 0c-0.425-0.425-0.425-1.114 0-1.538s1.114-0.425 1.538 0z"></path>
<path fill="#fff" d="M10.103 20.358l10.256-10.256 1.538 1.538-10.256 10.256-1.538-1.538z"></path>
</svg>
