<!-- Generated by IcoMoon.io -->
<svg version="1.1" xmlns="http://www.w3.org/2000/svg" width="32" height="32" viewBox="0 0 32 32">
<title>like</title>
<path fill="#4d5152" d="M15.867 30.933c-0.267 0-0.267-0.133-0.533-0.133-0.133 0-0.133-0.133-0.267-0.133 0-0.133-0.4-0.4-0.933-1.067l-0.667-0.8c-3.2-3.733-9.733-11.6-12-15.2-0.667-1.333-1.067-2.667-1.067-4 0.133-4.533 3.867-8.267 8.267-8.267 2.933 0 5.467 1.467 6.933 4l0.4 0.533 0.4-0.533c1.6-2.533 4.133-4 6.933-4 4.4 0 8.133 3.733 8.133 8.133 0 1.333-0.4 2.8-1.067 4.133-2.8 4.533-13.067 16.533-13.6 17.067-0.4 0.267-0.533 0.267-0.933 0.267zM8.667 3.067c-3.6 0-6.4 2.8-6.4 6.4 0 1.2 0.267 2.267 0.933 3.2 1.333 2.267 4.933 6.8 10.8 13.867 0.667 0.8 1.2 1.467 1.6 2l0.267 0.4 0.267-0.4c7.067-8.267 11.067-13.333 12.4-15.733 0.533-0.933 0.8-2.133 0.8-3.2 0-3.467-2.933-6.4-6.4-6.4s-6.4 2.933-6.4 6.4c0 0.4-0.533 0.933-0.933 0.933s-0.933-0.533-0.933-0.933c0.133-1.733-0.533-3.467-1.733-4.667-1.067-1.2-2.533-1.867-4.267-1.867z"></path>
</svg>
