<!-- Generated by IcoMoon.io -->
<svg version="1.1" xmlns="http://www.w3.org/2000/svg" width="32" height="32" viewBox="0 0 32 32">
<title>list</title>
<path d="M6.803 28.928q0 1.429-0.973 2.25t-2.419 0.821q-1.893 0-3.072-1.179l1.018-1.571q0.875 0.803 1.893 0.803 0.518 0 0.902-0.259t0.384-0.758q0-1.142-1.875-1l-0.464-1q0.142-0.179 0.581-0.776t0.758-0.965 0.661-0.688v-0.018q-0.286 0-0.866 0.018t-0.866 0.018v0.947h-1.893v-2.714h5.947v1.571l-1.696 2.053q0.91 0.214 1.446 0.875t0.536 1.571zM6.84 17.733v2.84h-6.464q-0.107-0.643-0.107-0.965 0-0.91 0.419-1.661t1.010-1.214 1.179-0.848 1.010-0.776 0.419-0.803q0-0.446-0.259-0.688t-0.706-0.242q-0.821 0-1.446 1.035l-1.518-1.053q0.429-0.91 1.277-1.419t1.883-0.509q1.304 0 2.197 0.741t0.893 2.010q0 0.893-0.606 1.634t-1.339 1.152-1.349 0.902-0.634 0.938h2.267v-1.072h1.875zM32 23.429v3.429q0 0.232-0.17 0.402t-0.402 0.17h-21.714q-0.232 0-0.402-0.17t-0.17-0.402v-3.429q0-0.25 0.16-0.411t0.411-0.16h21.714q0.232 0 0.402 0.17t0.17 0.402zM6.858 7.374v1.768h-5.982v-1.768h1.91q0-0.733 0.010-2.179t0.010-2.16v-0.214h-0.035q-0.142 0.304-0.893 0.965l-1.267-1.357 2.429-2.267h1.893v7.214h1.928zM32 14.286v3.429q0 0.232-0.17 0.402t-0.402 0.17h-21.714q-0.232 0-0.402-0.17t-0.17-0.402v-3.429q0-0.25 0.16-0.411t0.411-0.16h21.714q0.232 0 0.402 0.17t0.17 0.402zM32 5.142v3.429q0 0.232-0.17 0.402t-0.402 0.17h-21.714q-0.232 0-0.402-0.17t-0.17-0.402v-3.429q0-0.232 0.17-0.402t0.402-0.17h21.714q0.232 0 0.402 0.17t0.17 0.402z"></path>
</svg>
