<?xml version="1.0" encoding="utf-8"?>
<!-- Generated by IcoMoon.io -->
<!DOCTYPE svg PUBLIC "-//W3C//DTD SVG 1.1//EN" "http://www.w3.org/Graphics/SVG/1.1/DTD/svg11.dtd">
<svg version="1.1" xmlns="http://www.w3.org/2000/svg" xmlns:xlink="http://www.w3.org/1999/xlink" width="32" height="32" viewBox="0 0 32 32">
<path d="M29.091 27.637h-26.182c-1.606 0-2.909-1.304-2.909-2.909v-17.454c0-1.606 1.304-2.909 2.909-2.909h26.182c1.606 0 2.909 1.304 2.909 2.909v17.454c0 1.606-1.304 2.909-2.909 2.909zM27.637 24.728l-8.338-7.296-3.299 2.933-3.299-2.933-8.338 7.296h23.272zM2.909 23.272l8.182-7.272-8.182-7.272v14.546zM4.363 7.272l11.637 10.182 11.637-10.182h-23.272zM29.091 8.728l-8.182 7.272 8.182 7.272v-14.546z"></path>
</svg>
