<?xml version="1.0" encoding="utf-8"?>
<!-- Generated by IcoMoon.io -->
<!DOCTYPE svg PUBLIC "-//W3C//DTD SVG 1.1//EN" "http://www.w3.org/Graphics/SVG/1.1/DTD/svg11.dtd">
<svg version="1.1" xmlns="http://www.w3.org/2000/svg" xmlns:xlink="http://www.w3.org/1999/xlink" width="32" height="32" viewBox="0 0 32 32">
<path fill="#e7eced" d="M11.23 25.117l-4.77 2.597c-0.302 0.181-0.544 0.362-0.786 0.544 2.778 2.355 6.4 3.744 10.325 3.744s7.486-1.389 10.264-3.683c-0.242-0.242-0.544-0.422-0.845-0.544l-5.133-2.536c-0.664-0.302-1.086-1.027-1.086-1.75v-1.992c0.12-0.181 0.302-0.362 0.483-0.603 0.725-0.966 1.208-2.053 1.57-3.2 0.664-0.181 1.147-0.786 1.147-1.509v-2.114c0-0.483-0.181-0.906-0.544-1.208v-3.2c0 0 0.664-4.83-5.917-4.83s-5.917 4.83-5.917 4.83v3.080c-0.302 0.302-0.544 0.725-0.544 1.208v2.114c0 0.544 0.302 1.086 0.725 1.328 0.544 2.355 1.933 3.986 1.933 3.986v1.933c0.12 0.786-0.302 1.45-0.906 1.811z"></path>
<path fill="#556080" d="M16.302 0c-8.875-0.12-16.12 6.883-16.302 15.698-0.061 5.011 2.173 9.539 5.675 12.498 0.242-0.181 0.483-0.362 0.786-0.544l4.77-2.597c0.603-0.362 1.027-1.027 1.027-1.691v-1.933c0 0-1.389-1.691-1.933-3.986-0.422-0.302-0.725-0.786-0.725-1.328v-2.114c0-0.483 0.181-0.906 0.544-1.208v-3.139c0 0-0.664-4.83 5.917-4.83s5.917 4.83 5.917 4.83v3.080c0.302 0.302 0.544 0.725 0.544 1.208v2.114c0 0.725-0.483 1.328-1.147 1.509-0.362 1.147-0.906 2.234-1.57 3.2-0.181 0.242-0.362 0.483-0.483 0.603v1.992c0 0.725 0.422 1.389 1.086 1.75l5.133 2.536c0.302 0.181 0.603 0.362 0.845 0.544 3.32-2.778 5.555-7.064 5.614-11.894 0.12-8.875-6.883-16.12-15.698-16.302z"></path>
</svg>
