<?xml version="1.0" encoding="utf-8"?>
<!-- Generated by IcoMoon.io -->
<!DOCTYPE svg PUBLIC "-//W3C//DTD SVG 1.1//EN" "http://www.w3.org/Graphics/SVG/1.1/DTD/svg11.dtd">
<svg version="1.1" xmlns="http://www.w3.org/2000/svg" xmlns:xlink="http://www.w3.org/1999/xlink" width="32" height="32" viewBox="0 0 32 32">
<path d="M22.754 22.68h-13.387c-0.368 0-0.667 0.299-0.667 0.667s0.299 0.667 0.667 0.667h13.389c0.368 0 0.667-0.299 0.667-0.667s-0.299-0.667-0.667-0.667z"></path>
<path d="M22.754 18.68h-13.387c-0.368 0-0.667 0.299-0.667 0.667s0.299 0.667 0.667 0.667h13.389c0.368 0 0.667-0.299 0.667-0.667s-0.299-0.667-0.667-0.667z"></path>
<path d="M22.754 14.68h-13.387c-0.368 0-0.667 0.299-0.667 0.667s0.299 0.667 0.667 0.667h13.389c0.368 0 0.667-0.299 0.667-0.667s-0.299-0.667-0.667-0.667z"></path>
<path d="M9.365 12.013h7.438c0.368 0 0.667-0.299 0.667-0.667s-0.299-0.667-0.667-0.667h-7.438c-0.368 0-0.667 0.299-0.667 0.667s0.299 0.667 0.667 0.667z"></path>
<path d="M27.526 4.877l-4.416-4.358c-0.216-0.213-0.514-0.506-1.072-0.506h-16.285c-0.947 0-1.717 0.781-1.717 1.741v26.014c0 0.205 0.098 0.387 0.246 0.51l3.142 3.36c0.126 0.134 0.302 0.211 0.486 0.211s0.362-0.077 0.486-0.211l3.506-3.747 3.629 3.875c0.251 0.269 0.722 0.269 0.973 0l3.629-3.875 3.629 3.875c0.126 0.134 0.301 0.21 0.483 0.211 0.002 0 0.002 0 0.003 0 0.182 0 0.357-0.075 0.483-0.206l3.117-3.27c0.117-0.123 0.184-0.29 0.184-0.459v-22.029c0.002-0.562-0.274-0.902-0.509-1.138zM26.102 5.347h-3.398v-3.355l3.398 3.355zM24.259 30.341l-3.634-3.88c-0.126-0.134-0.302-0.211-0.486-0.211s-0.362 0.077-0.486 0.211l-3.629 3.875-3.629-3.875c-0.251-0.269-0.722-0.269-0.973 0l-3.506 3.747-2.544-2.718v-25.736c0-0.221 0.174-0.408 0.382-0.408l15.616-0.010v4.677c0 0.368 0.299 0.667 0.667 0.667h4.667v21.094l-2.445 2.566z"></path>
</svg>
