<!-- Generated by IcoMoon.io -->
<svg version="1.1" xmlns="http://www.w3.org/2000/svg" width="26" height="32" viewBox="0 0 26 32">
<title>trash</title>
<path d="M9.142 24.571v-12.571q0-0.25-0.16-0.411t-0.411-0.16h-1.142q-0.25 0-0.411 0.16t-0.16 0.411v12.571q0 0.25 0.16 0.411t0.411 0.16h1.142q0.25 0 0.411-0.16t0.16-0.411zM13.714 24.571v-12.571q0-0.25-0.16-0.411t-0.411-0.16h-1.142q-0.25 0-0.411 0.16t-0.16 0.411v12.571q0 0.25 0.16 0.411t0.411 0.16h1.142q0.25 0 0.411-0.16t0.16-0.411zM18.286 24.571v-12.571q0-0.25-0.16-0.411t-0.411-0.16h-1.142q-0.25 0-0.411 0.16t-0.16 0.411v12.571q0 0.25 0.16 0.411t0.411 0.16h1.142q0.25 0 0.411-0.16t0.16-0.411zM8.571 6.858h8l-0.858-2.090q-0.125-0.16-0.304-0.197h-5.661q-0.179 0.035-0.304 0.197zM25.142 7.429v1.142q0 0.25-0.16 0.411t-0.411 0.16h-1.714v16.928q0 1.482-0.84 2.563t-2.018 1.080h-14.858q-1.179 0-2.018-1.045t-0.84-2.526v-17h-1.714q-0.25 0-0.411-0.16t-0.16-0.411v-1.142q0-0.25 0.16-0.411t0.411-0.16h5.518l1.25-2.982q0.267-0.661 0.965-1.125t1.411-0.464h5.714q0.714 0 1.411 0.464t0.965 1.125l1.25 2.982h5.518q0.25 0 0.411 0.16t0.16 0.411z"></path>
</svg>
